<svg xmlns="http://www.w3.org/2000/svg" viewBox="0 0 25.88 25.88"><defs><style>.cls-1{fill:#fff;stroke-linejoin:round;}.cls-1,.cls-2{stroke:#000;}.cls-2{fill:none;stroke-miterlimit:10;}</style></defs><g id="Layer_2" data-name="Layer 2"><g id="Layer_1-2" data-name="Layer 1"><polygon class="cls-1" points="14.16 0.5 14.86 3.53 18.28 4.95 20.87 3.28 22.6 5.01 20.93 7.6 22.37 11.06 25.38 11.71 25.38 14.16 22.37 14.81 20.93 18.28 22.6 20.87 20.87 22.6 18.28 20.93 14.81 22.37 14.16 25.38 11.71 25.38 11.06 22.37 7.6 20.93 5.01 22.6 3.28 20.87 4.95 18.28 3.51 14.81 0.5 14.16 0.5 11.71 3.51 11.06 4.95 7.6 3.28 5.01 5.01 3.28 7.6 4.95 11.06 3.51 11.71 0.5 14.16 0.5"/><circle class="cls-2" cx="12.94" cy="12.94" r="6"/></g></g></svg>