<svg xmlns="http://www.w3.org/2000/svg" xmlns:xlink="http://www.w3.org/1999/xlink" viewBox="0 0 23.69 23.69"><defs><style>.cls-1{stroke:#79addc;stroke-miterlimit:10;stroke-width:2px;}.cls-2{fill:url(#linear-gradient);}.cls-3{fill:#fff;}.cls-4{fill:url(#linear-gradient-2);}</style><linearGradient id="linear-gradient" x1="8.34" y1="14.58" x2="13.11" y2="6.32" gradientUnits="userSpaceOnUse"><stop offset="0" stop-color="#fff"/><stop offset="0" stop-color="#fdfdfd"/><stop offset="0.12" stop-color="#bbbaba"/><stop offset="0.23" stop-color="#858383"/><stop offset="0.32" stop-color="#5b5858"/><stop offset="0.41" stop-color="#3c393a"/><stop offset="0.49" stop-color="#2a2627"/><stop offset="0.54" stop-color="#231f20"/><stop offset="1" stop-color="#fff"/></linearGradient><linearGradient id="linear-gradient-2" x1="10.37" y1="15.09" x2="13.11" y2="15.09" gradientUnits="userSpaceOnUse"><stop offset="0.5" stop-color="#fff"/><stop offset="0.73" stop-color="#b2b2b2"/><stop offset="0.91" stop-color="#7b7b7b"/><stop offset="1" stop-color="#666"/></linearGradient></defs><g id="Layer_2" data-name="Layer 2"><g id="Layer_1-2" data-name="Layer 1"><rect class="cls-1" x="1" y="1" width="21.69" height="21.69" rx="10.85"/><path class="cls-2" d="M10.74,4.92A3.9,3.9,0,0,0,8,9.69a4.11,4.11,0,0,0,.59,1.25L6.13,15.17l.59,2.21,2.22-.59-.36-1.33,1.33-.35-.36-1.33,1.33-.36.5-.86a4,4,0,0,0,1.37-.11,3.9,3.9,0,1,0-2-7.53ZM12.1,6.45a1.15,1.15,0,1,1-.81,1.41A1.15,1.15,0,0,1,12.1,6.45Z"/><path class="cls-3" d="M8,7.67a3.91,3.91,0,0,0,2.76,4.78,4,4,0,0,0,1.37.11l2.44,4.23,2.22.59.59-2.21L16,14.81l.36-1.32L15,13.13l.36-1.33-.5-.86a4.11,4.11,0,0,0,.59-1.25A3.9,3.9,0,0,0,8,7.67Zm2.48-.58a1.14,1.14,0,1,1,.68,1.47A1.15,1.15,0,0,1,10.44,7.09Z"/><path class="cls-4" d="M10.37,15.07a2,2,0,0,1,1.37-.48,2,2,0,0,1,1.36.51,2.13,2.13,0,0,1-2.73,0Z"/></g></g></svg>