<svg xmlns="http://www.w3.org/2000/svg" xmlns:xlink="http://www.w3.org/1999/xlink" viewBox="0 0 23.694 23.694"><defs><style>.cls-1{stroke:#79addc;stroke-miterlimit:10;stroke-width:2px;}.cls-2{fill:url(#linear-gradient);}.cls-3{fill:#fff;}</style><linearGradient id="linear-gradient" x1="8.341" y1="14.579" x2="13.107" y2="6.325" gradientUnits="userSpaceOnUse"><stop offset="0" stop-color="#fff"/><stop offset="0.004" stop-color="#fdfdfd"/><stop offset="0.117" stop-color="#bbbaba"/><stop offset="0.225" stop-color="#858383"/><stop offset="0.324" stop-color="#5b5858"/><stop offset="0.413" stop-color="#3c393a"/><stop offset="0.488" stop-color="#2a2627"/><stop offset="0.54" stop-color="#231f20"/><stop offset="0.997" stop-color="#fff"/></linearGradient></defs><g id="Layer_2" data-name="Layer 2"><g id="Layer_1-2" data-name="Layer 1"><rect class="cls-1" x="1" y="1" width="21.694" height="21.694" rx="10.847"/><path class="cls-2" d="M10.737,4.921a3.886,3.886,0,0,0-2.164,6.016L6.13,15.169l.593,2.213,2.213-.593L8.58,15.461l1.328-.355-.356-1.328,1.328-.356.5-.865a3.893,3.893,0,1,0-.643-7.636ZM12.1,6.454a1.146,1.146,0,1,1-.81,1.4A1.146,1.146,0,0,1,12.1,6.454Z"/><path class="cls-3" d="M7.962,7.675a3.887,3.887,0,0,0,4.129,4.882l2.443,4.232,2.213.593.593-2.213-1.328-.356.356-1.328L15.04,13.13,15.4,11.8l-.5-.865A3.894,3.894,0,1,0,7.962,7.675Zm2.478-.584a1.145,1.145,0,1,1,.684,1.468A1.144,1.144,0,0,1,10.44,7.091Z"/></g></g></svg>